<svg xmlns="http://www.w3.org/2000/svg" data-name="Layer 1" width="25" height="25"><rect id="backgroundrect" width="100%" height="100%" x="0" y="0" fill="none" stroke="none"/><title>Webpage</title><g class="currentLayer" style=""><title>Layer 1</title><path id="Webpage" d="M23,2H2A2,2,0,0,0,0,4V22a2,2,0,0,0,2,2H23a2,2,0,0,0,2-2V4A2,2,0,0,0,23,2Zm1,20a1,1,0,0,1-1,1H2a1,1,0,0,1-1-1V8H24ZM24,7H1V4A1,1,0,0,1,2,3H23a1,1,0,0,1,1,1ZM4,4.5v1a.5.5,0,0,1-.5.5h-1A.5.5,0,0,1,2,5.5v-1A.5.5,0,0,1,2.5,4h1A.5.5,0,0,1,4,4.5Zm3,0v1a.5.5,0,0,1-.5.5h-1A.5.5,0,0,1,5,5.5v-1A.5.5,0,0,1,5.5,4h1A.5.5,0,0,1,7,4.5Zm3,0v1a.5.5,0,0,1-.5.5h-1A.5.5,0,0,1,8,5.5v-1A.5.5,0,0,1,8.5,4h1A.5.5,0,0,1,10,4.5Z" fill="#ffffff" class="selected" fill-opacity="1"/></g></svg>