<svg width="193" height="70" xmlns="http://www.w3.org/2000/svg" xmlns:svg="http://www.w3.org/2000/svg">
 <g>
  <title>Layer 1</title>
  <path id="svg_2" fill="#fff" d="m9.394,40.624c-1.536,-0.018 -2.262,-0.953 -2.431,-1.28c-0.17,-0.326 -0.094,-0.793 0.199,-1.317c0.216,-0.385 4.128,-6.035 5.901,-8.362c1.774,-2.328 6.291,-8.04 8.888,-10.271c2.596,-2.23 3.648,-2.82 4.5,-3.082c0.691,-0.211 2.07,-0.797 4.224,0.376c2.154,1.172 2.997,2.53 3.839,3.832c0.841,1.303 1.134,2.56 1.362,3.159c0.228,0.599 0.729,1.03 1.713,0.96c0.984,-0.069 1.749,-0.301 2.465,-0.037c0.716,0.263 1.599,0.688 1.346,2.006c-0.255,1.32 -1.767,2.821 -2.191,3.705c-0.425,0.883 -0.853,1.601 -0.502,3.076s1.158,4.201 2.007,5.997c0.848,1.796 1.903,2.656 0.951,4.971c-0.952,2.317 -4.187,2.146 -5.128,1.502s-2.061,-2.27 -2.697,-4.453c-0.636,-2.183 -1.386,-4.747 -1.729,-5.728c-0.343,-0.981 -1.391,-1.908 -2.306,-1.789c-0.777,0.103 -1.73,0.708 -3.328,1.333c-2.585,1.013 -4.854,1.636 -7.258,2.055c-2.405,0.42 -4.579,0.716 -5.179,0.835c-0.601,0.119 -0.9,0.288 -1.307,0.622c-0.456,0.38 -1.204,1.912 -3.339,1.89zm12.969,-14.514c-1.116,1.112 -3.039,3.284 -3.34,3.812c-0.463,0.81 0.094,1.46 0.498,1.601c0.404,0.139 0.769,0.097 2.118,-0.142c1.348,-0.239 5.997,-1.989 6.83,-2.477c0.832,-0.488 0.888,-1.349 0.734,-2.093c-0.108,-0.539 -0.491,-1.162 -0.83,-1.814c-0.337,-0.652 -1.088,-1.654 -2.032,-1.54c-1.385,0.166 -2.863,1.54 -3.978,2.653zm19.516,-1.681c0.574,1.108 2.355,1.061 3.559,1.006c1.204,-0.054 3.541,-0.198 4.414,-0.358c0.874,-0.159 1.832,0.338 1.852,1.691c0.02,1.35 -0.198,6.284 -0.16,8.805c0.037,2.52 0.461,6.496 0.7,7.806c0.24,1.312 0.366,2.442 2.521,2.337c2.152,-0.105 3.301,-1.401 3.62,-2.062c0.319,-0.663 0.375,-1.833 0.176,-2.999c-0.202,-1.166 -0.755,-4.043 -0.965,-5.793c-0.208,-1.751 -0.464,-6.605 -0.265,-8.032c0.197,-1.429 1.31,-2.687 2.801,-3.185c1.489,-0.498 4.506,-1.405 6.545,-1.961c2.077,-0.567 7.383,-2.082 9.206,-2.329c1.824,-0.247 2.846,-0.262 3.797,-0.129c0.953,0.131 3.227,0.755 4.557,-0.617c1.333,-1.372 1.39,-2.395 1.307,-3.088c-0.084,-0.692 -1.02,-2.139 -2.736,-2.151c-1.717,-0.01 -4.711,0.107 -8.641,1.081c-3.931,0.972 -9.644,2.371 -11.901,2.879c-2.258,0.51 -2.803,0.7 -3.28,0.562c-0.476,-0.139 -0.697,-0.135 -0.671,-0.866c0.026,-0.732 0.383,-1.284 0.373,-2.052c-0.012,-0.767 -0.788,-1.34 -1.657,-0.851c-0.869,0.488 -1.984,1.71 -2.699,2.708c-0.716,0.996 -1.065,2.097 -2.56,2.339c-1.493,0.241 -2.846,0.151 -3.942,0.06c-1.098,-0.094 -1.907,-0.448 -2.955,0.335c-1.047,0.782 -2.338,2.373 -2.872,3.33c-0.534,0.955 -0.236,1.316 -0.124,1.534z"/>
  <path id="svg_3" fill="#fff" d="m78.363333,23.593667c-1.129,0.271 -0.805,-0.098 -1.531,0.278c-0.725,0.376 -2.596,2.303 -3.422,3.265c-0.825,0.963 -1.042,1.111 -1.72,2.218c-0.677,1.105 -0.235,1.355 -0.262,1.976c-0.027,0.623 -0.902,5.676 -0.656,7.536c0.248,1.861 0.801,4.663 3.415,5.977c2.612,1.311 5.945,1.92 10.238,0.724c4.292,-1.198 10.898,-5.322 12.758,-6.621c1.342,-0.937 1.968,-0.248 2.013,0.299c0.047,0.548 0.031,1.973 0.41,2.917c0.379,0.944 2.5,1.131 3.583,0.238c1.082,-0.892 1.478,-1.374 1.792,-2.255c0.315,-0.882 -0.185,-2.627 -0.27,-3.319c-0.082,-0.694 -0.361,-2.188 0.142,-2.815c0.502,-0.628 1.004,-1.257 1.844,-1.197c0.842,0.061 3.987,1.462 5.677,2.022c1.687,0.558 4.08,1.513 5.048,1.835c1.137,0.379 2.284,1.281 3.351,1.886c1.067,0.605 2.757,1.201 4.564,-0.142c1.807,-1.341 3.306,-3.629 3.583,-4.655s0.118,-1.828 0.399,-2.599c0.281,-0.771 0.572,-0.777 1.193,-0.858c0.62,-0.083 3.28,-0.599 4.514,-1.018c1.236,-0.42 2.332,-0.364 2.392,1.133s0.244,8.909 -0.016,11.104c-0.258,2.196 0.156,3.066 1.612,2.79c1.457,-0.278 3.381,-1.817 3.645,-2.978c0.344,-1.502 -0.082,-3.14 -0.08,-5.404c0.002,-2.266 -0.305,-5.769 0.119,-6.688c0.425,-0.919 1.657,-1.522 3.624,-1.954c1.966,-0.43 2.733,-0.369 3.82,-0.97c1.087,-0.601 2.2,-1.896 2.478,-2.85s0.105,-2.741 -1.352,-2.499c-1.458,0.239 -3.418,1.072 -5.204,1.354a744.805,744.805 0 0 1 -9.586,1.423c-1.821,0.246 -2.99,0.299 -3.935,0.605c-0.945,0.307 -2.06,1.746 -2.45,2.265c-0.502,0.665 -1.844,1.307 -1.825,0.173c0.024,-1.389 0.117,-4.755 -0.257,-7.485c-0.204,-1.494 -1.76,-0.448 -2.192,-0.039c-0.432,0.408 -2.374,2.482 -2.549,2.996c-0.174,0.515 -0.424,0.921 -0.32,3.038c0.106,2.118 0.156,2.956 0.057,3.725c-0.098,0.768 -0.635,1.543 -2.936,1.542c-2.302,-0.002 -5.243,-1.235 -6.198,-1.587c-0.955,-0.353 -7.357,-3.543 -8.498,-4.075c-1.141,-0.531 -2.209,-1.1 -3.323,0.123c-1.113,1.222 -2.302,2.445 -2.801,3.257c-0.499,0.811 -0.544,2.704 -0.523,4.062c0.01,0.694 -0.85,0.547 -1.774,0.977c-0.661,0.307 -2.088,1.99 -3.936,3.128c-1.515,0.934 -4.6,2.689 -8.603,3.671c-2.221,0.545 -4.631,0.435 -5.413,-0.467c-0.78,-0.901 -0.215,-2.188 0.397,-2.782s3.366,-2.096 5.649,-3.262c2.285,-1.167 4.62,-3.686 4.82,-4.931c0.201,-1.245 -1.206,-2.576 -2.184,-2.013c-1.679,0.966 -3.181,2.132 -4.053,2.618c-0.941,0.525 -1.267,0.75 -2.032,0.835c-0.766,0.083 -1.623,-0.963 -1.268,-1.698c0.354,-0.736 2.062,-1.383 3.251,-2.423c1.189,-1.041 3.796,-2.616 3.996,-3.969c0.199,-1.355 -1.4,-2.373 -2.584,-1.788a811.487,811.487 0 0 0 -6.631,3.351zm77.576,1.907c2.392,-0.802 2.87,-0.992 3.348,-0.854c0.476,0.138 -0.027,0.659 1.288,0.748c1.317,0.089 4.172,0.449 5.899,1.192c1.728,0.741 3.889,3.593 3.212,7.22c-0.676,3.625 -3.794,7.088 -6.119,8.53c-2.001,1.242 -4.923,2.749 -10.3,2.529c-5.259,-0.214 -5.219,-4.635 -4.923,-6.795c0.296,-2.159 1.682,-4.773 1.896,-5.141c0.214,-0.369 0.248,-0.552 -0.304,-0.727c-0.55,-0.174 -0.959,-0.679 -0.752,-1.449c0.208,-0.771 1.183,-1.875 2.329,-3.104c0.9,-0.963 1.917,-1.306 4.426,-2.149zm-0.611,5.563c-1.161,0.579 -1.67,3.166 -1.875,4.118c-0.205,0.954 -0.491,3.77 1.958,3.989c2.451,0.22 5.109,-0.405 6.803,-1.892c1.694,-1.486 2.209,-3.795 1.352,-4.915c-0.858,-1.118 -3.056,-1.599 -4.042,-1.583c-0.987,0.015 -3.218,-0.207 -4.196,0.283zm28.841,-0.504c0,0.55 -0.445,0.994 -0.994,0.994l-4.586,0a0.992,0.992 0 0 1 -0.993,-0.994l0,-4.587c0,-0.549 0.444,-0.994 0.993,-0.994l4.586,0c0.549,0 0.994,0.445 0.994,0.994l0,4.587zm-28.841,13.324c0,0.55 -0.445,0.994 -0.994,0.994l-4.586,0a0.992,0.992 0 0 1 -0.993,-0.994l0,-4.586c0,-0.55 0.444,-0.994 0.993,-0.994l4.586,0c0.549,0 0.994,0.444 0.994,0.994l0,4.586z"/>
 </g>
</svg>