<svg xmlns="http://www.w3.org/2000/svg" data-name="Layer 1" width="24" height="24" style=""><rect id="backgroundrect" width="100%" height="100%" x="0" y="0" fill="none" stroke="none"/><title>landing page, home, house, building, web</title><g class="currentLayer" style=""><title>Layer 1</title><path d="M21.8,6.78,13.68,1.49a3.1,3.1,0,0,0-3.36,0L2.2,6.78A2.46,2.46,0,0,0,1,8.84V23h9V17.43h4V23h9V8.84A2.46,2.46,0,0,0,21.8,6.78ZM21,21H16V15.43H8V21H3V8.84a.49.49,0,0,1,.26-.39l8.12-5.29a1.14,1.14,0,0,1,1.18,0l8.12,5.29a.49.49,0,0,1,.26.39Z" id="svg_1" class="selected" fill="#ffffff" fill-opacity="1"/></g></svg>