<svg xmlns="http://www.w3.org/2000/svg" xmlns:xlink="http://www.w3.org/1999/xlink" version="1.1" style="" xml:space="preserve" width="253.071" height="253.071"><rect id="backgroundrect" width="100%" height="100%" x="0" y="0" fill="none" stroke="none"/>
















<g class="currentLayer" style=""><title>Layer 1</title><g id="svg_1" class="selected" fill="#ffffff" fill-opacity="1">
	<path d="M247.071,167.022h-25.87V119.88c0-49.777-38.985-90.614-88.024-93.598V7.081c0-3.313-2.687-6-6-6s-6,2.687-6,6v19.13   c-49.641,2.342-89.306,43.46-89.306,93.67v30.655c0,3.313,2.687,6,6,6s6-2.687,6-6V119.88c0-45.093,36.686-81.779,81.778-81.779   h1.773c45.093,0,81.779,36.687,81.779,81.779v47.142H6c-3.313,0-6,2.687-6,6v34.788c0,3.313,2.687,6,6,6h241.071   c3.313,0,6-2.687,6-6v-34.788C253.071,169.708,250.385,167.022,247.071,167.022z M241.071,201.81H12v-22.788h229.071V201.81z" id="svg_2" fill="#ffffff" fill-opacity="1"/>
	<path d="M148.172,218.571c-3.313,0-6,2.687-6,6c0,8.503-6.917,15.42-15.42,15.42h-0.433c-8.502,0-15.419-6.917-15.419-15.42   c0-3.313-2.687-6-6-6s-6,2.687-6,6c0,15.119,12.3,27.42,27.419,27.42h0.433c15.12,0,27.42-12.301,27.42-27.42   C154.172,221.257,151.485,218.571,148.172,218.571z" id="svg_3" fill="#ffffff" fill-opacity="1"/>
</g><g id="svg_4">
</g><g id="svg_5">
</g><g id="svg_6">
</g><g id="svg_7">
</g><g id="svg_8">
</g><g id="svg_9">
</g><g id="svg_10">
</g><g id="svg_11">
</g><g id="svg_12">
</g><g id="svg_13">
</g><g id="svg_14">
</g><g id="svg_15">
</g><g id="svg_16">
</g><g id="svg_17">
</g><g id="svg_18">
</g></g></svg>